# xmcd
#
# Track frame offsets: 
#        150
#        20062
#        41173
#        57822
#        80399
#        119228
#        142254
#        163851
#        183931
#        197603
#        229809
#        258382
#
# Disc length: 3696 seconds
#
# Revision: 2
# Processed by: cddbd v1.5.2PL0 Copyright (c) Steve Scherf et al.
# Submitted via: ExactAudioCopy v1.3
#
DISCID=b00e6e0c
DTITLE=B.B. King and Eric Clapton - Riding with the King
DYEAR=2000
DGENRE=Blues
TTITLE0=Riding with the King
TTITLE1=Ten long Years
TTITLE2=Key to the Highway
TTITLE3=Merry You
TTITLE4=Three o'clock blues
TTITLE5=Help the poor
TTITLE6=I wanna be
TTITLE7=Worried life Blues
TTITLE8=Days of old
TTITLE9=When my heart beats like a hammer
TTITLE10=Hold on I'am coming
TTITLE11=Come rain or come shine
EXTD=
EXTT0=
EXTT1=
EXTT2=
EXTT3=
EXTT4=
EXTT5=
EXTT6=
EXTT7=
EXTT8=
EXTT9=
EXTT10=
EXTT11=
PLAYORDER=
